Coordinates
nRows=5
nColumns=38

# SIMM Motion File Header:
name Coordinates
datacolumns 38
datarows 5
otherdata 1
range 0.86367000000000005000 0.86767000000000005000

Units are S.I. units (second, meters, Newtons, ...)
Angles are in degrees.

endheader
time	pelvis_tilt	pelvis_list	pelvis_rotation	pelvis_tx	pelvis_ty	pelvis_tz	hip_flexion_r	hip_adduction_r	hip_rotation_r	knee_angle_r	ankle_angle_r	subtalar_angle_r	mtp_angle_r	hip_flexion_l	hip_adduction_l	hip_rotation_l	knee_angle_l	ankle_angle_l	subtalar_angle_l	mtp_angle_l	lumbar_extension	lumbar_bending	lumbar_rotation	arm_flex_r	arm_add_r	arm_rot_r	elbow_flex_r	pro_sup_r	wrist_flex_r	wrist_dev_r	arm_flex_l	arm_add_l	arm_rot_l	elbow_flex_l	pro_sup_l	wrist_flex_l	wrist_dev_l
      0.86367000000000005000	     -4.09906163311529870000	     -0.37822098669652565000	      1.79869460937937610000	      0.91542444692469960000	      1.01390399346740210000	     -0.28031619553764864000	     -8.09571905259327450000	      2.79267267115540820000	     -2.98676665029606210000	    -54.25067646610017400000	    -19.21691635105297600000	     -0.00000000000030802813	     -0.00000000000005928858	     22.67037944456014400000	      5.35741143238510540000	     13.02695123736061700000	     -7.38154108260834540000	      7.81276779110836550000	     -0.00000000000001681863	      0.00000000000003168441	     -6.76314949154235470000	     -0.11311806141397270000	      8.72309124799848770000	    -28.83107513238848400000	    -24.71469976034237700000	      3.27320459704479030000	    109.56734981608412000000	    100.66608707625463000000	      0.00000000000000748481	     -0.00000000000003827378	    -50.75415486519850100000	    -21.59966975973007700000	     -4.69775357615588170000	    110.53509881044755000000	    115.82751343017503000000	      0.00000000000000487763	      0.00000000000002655369
      0.86467000000000005000	     -4.04119385758209140000	     -0.30503325100734557000	      1.83057705125119410000	      0.91533416631038245000	      1.01338076406784560000	     -0.28039973734371021000	     -7.91197179654837510000	      2.66883490224323430000	     -3.09333150355462920000	    -54.90791945654415700000	    -19.10576420942757600000	     -0.00000000000030947548	     -0.00000000000005956167	     22.60714455973500800000	      5.49224640991211200000	     12.96557033168257800000	     -7.56218200927702270000	      7.82389426286449560000	     -0.00000000000001688810	      0.00000000000003184235	     -6.85331208599539730000	     -0.20164366797421834000	      8.61149148175426580000	    -28.86540993469179000000	    -24.66457415192921600000	      3.27343384376491290000	    109.37411336368285000000	    100.64203276116577000000	      0.00000000000000752804	     -0.00000000000003848049	    -50.68814262221084000000	    -21.59169796911681200000	     -4.72240045797185280000	    110.50509583114855000000	    115.75798171807574000000	      0.00000000000000489183	      0.00000000000002667379
      0.86567000000000005000	     -3.98560838841770780000	     -0.22988375911199391000	      1.86417534135697880000	      0.91524162398301423000	      1.01284429407401970000	     -0.28048625007549405000	     -7.72516956194080700000	      2.54206882094979210000	     -3.20087099710430100000	    -55.56527965281006200000	    -18.99228233057871100000	     -0.00000000000031092266	     -0.00000000000005983355	     22.54709429778824500000	      5.63008907360354360000	     12.90652075141339100000	     -7.74798269765386930000	      7.82574189898198200000	     -0.00000000000001695409	      0.00000000000003199944	     -6.94125845021898960000	     -0.29210792669389285000	      8.49722390296320110000	    -28.90071288897875900000	    -24.61339179312714300000	      3.27273724891000880000	    109.17933377132492000000	    100.61851052698128000000	      0.00000000000000757127	     -0.00000000000003868865	    -50.62094356057256300000	    -21.58524743135116400000	     -4.74675804036451860000	    110.47500348142016000000	    115.68746906458341000000	      0.00000000000000490699	      0.00000000000002679151
      0.86667000000000005000	     -3.93227723304538700000	     -0.15283497529421725000	      1.89964720431952610000	      0.91514681305939516000	      1.01229461428717050000	     -0.28057594521198231000	     -7.53540594803868390000	      2.41242041944929840000	     -3.30955934675915090000	    -56.22267062374304200000	    -18.87641664794050600000	     -0.00000000000031236878	     -0.00000000000006010478	     22.49024160574450800000	      5.77091908432892530000	     12.84990169738495800000	     -7.93891994571801880000	      7.81817690972707970000	     -0.00000000000001702253	      0.00000000000003215670	     -7.02701934967554290000	     -0.38441754927684790000	      8.38014506856090340000	    -28.93697618834084700000	    -24.56119264082839500000	      3.27111352412406210000	    108.98305116118682000000	    100.59561226084003000000	      0.00000000000000761412	     -0.00000000000003889669	    -50.55260288186382700000	    -21.58032332125595700000	     -4.77083681886018680000	    110.44487922591348000000	    115.61602866752051000000	      0.00000000000000492294	      0.00000000000002690892
      0.86767000000000005000	     -3.88122132257780890000	     -0.07395255347990546700	      1.93709334607280170000	      0.91504970300927724000	      1.01173169181642160000	     -0.28066895856629970000	     -7.34270242078618110000	      2.27993245904942300000	     -3.41950792697699280000	    -56.88004152125108000000	    -18.75811355307826400000	     -0.00000000000031381461	     -0.00000000000006037615	     22.43666005737612300000	      5.91469385404516500000	     12.79573062441407300000	     -8.13498789130006020000	      7.80113063260580030000	     -0.00000000000001709207	      0.00000000000003231429	     -7.11057162728921190000	     -0.47848149309468802000	      8.26016734340610450000	    -28.97419669310386700000	    -24.50801965847519900000	      3.26856225149775570000	    108.78530054492761000000	    100.57342808157786000000	      0.00000000000000765656	     -0.00000000000003910452	    -50.48317020570829800000	    -21.57692343687705300000	     -4.79464513948576080000	    110.41477251088102000000	    115.54371545396178000000	      0.00000000000000494018	      0.00000000000002702769
